<svg width="33" height="34" viewBox="0 0 33 34" fill="none" xmlns="http://www.w3.org/2000/svg">
<path d="M24.8569 16.9999C24.8503 16.2859 24.5626 15.6032 24.0562 15.0999L18.2341 9.26415C17.9798 9.01139 17.6358 8.86951 17.2773 8.86951C16.9188 8.86951 16.5748 9.01139 16.3205 9.26415C16.1933 9.39032 16.0923 9.54042 16.0234 9.7058C15.9545 9.87118 15.9191 10.0486 15.9191 10.2277C15.9191 10.4069 15.9545 10.5843 16.0234 10.7496C16.0923 10.915 16.1933 11.0651 16.3205 11.1913L20.7855 15.6427H7.21408C6.85414 15.6427 6.50895 15.7857 6.25443 16.0402C5.99992 16.2947 5.85693 16.6399 5.85693 16.9999C5.85693 17.3598 5.99992 17.705 6.25443 17.9595C6.50895 18.214 6.85414 18.357 7.21408 18.357H20.7855L16.3205 22.822C16.0649 23.0758 15.9207 23.4206 15.9194 23.7808C15.9181 24.1409 16.06 24.4868 16.3137 24.7424C16.5675 24.9979 16.9124 25.1422 17.2725 25.1435C17.6326 25.1447 17.9785 25.0029 18.2341 24.7491L24.0562 18.9134C24.5659 18.4067 24.8539 17.7186 24.8569 16.9999Z" fill="white"/>
</svg>
